<?xml version="1.0" encoding="UTF-8"?>
<svg xmlns="http://www.w3.org/2000/svg" xmlns:xlink="http://www.w3.org/1999/xlink" width="37pt" height="37pt" viewBox="0 0 37 37" version="1.1">
<g id="surface2139">
<path style=" stroke:none;fill-rule:nonzero;fill:#2a9d8f;fill-opacity:1;" d="M 18.5 1.734375 C 9.25 1.734375 1.734375 9.25 1.734375 18.5 C 1.734375 27.75 9.25 35.265625 18.5 35.265625 C 22.980469 35.265625 27.199219 33.53125 30.324219 30.378906 L 30.351562 30.351562 L 30.351562 32.492188 C 30.351562 32.980469 30.726562 33.359375 31.21875 33.359375 C 31.710938 33.359375 32.085938 32.980469 32.085938 32.492188 L 32.085938 28.355469 C 32.085938 27.867188 31.710938 27.488281 31.21875 27.488281 L 27.054688 27.488281 C 26.566406 27.488281 26.1875 27.867188 26.1875 28.355469 C 26.1875 28.847656 26.566406 29.222656 27.054688 29.222656 L 28.992188 29.222656 C 26.1875 32 22.460938 33.53125 18.5 33.53125 C 10.203125 33.53125 3.46875 26.796875 3.46875 18.5 C 3.46875 10.203125 10.203125 3.46875 18.5 3.46875 C 26.796875 3.46875 33.53125 10.203125 33.53125 18.5 C 33.53125 18.992188 33.90625 19.367188 34.398438 19.367188 C 34.890625 19.367188 35.265625 18.992188 35.265625 18.5 C 35.265625 9.25 27.722656 1.734375 18.5 1.734375 Z M 18.5 8.960938 C 18.007812 8.960938 17.632812 9.335938 17.632812 9.828125 L 17.632812 15.753906 C 16.449219 16.128906 15.609375 17.226562 15.609375 18.5 C 15.609375 20.089844 16.910156 21.390625 18.5 21.390625 C 19.800781 21.390625 20.898438 20.550781 21.246094 19.367188 L 27.171875 19.367188 C 27.664062 19.367188 28.039062 18.992188 28.039062 18.5 C 28.039062 18.007812 27.664062 17.632812 27.171875 17.632812 L 21.246094 17.632812 C 20.957031 16.738281 20.261719 16.015625 19.367188 15.753906 L 19.367188 9.828125 C 19.367188 9.335938 18.992188 8.960938 18.5 8.960938 Z M 18.5 17.34375 C 19.136719 17.34375 19.65625 17.863281 19.65625 18.5 C 19.65625 19.136719 19.136719 19.65625 18.5 19.65625 C 17.863281 19.65625 17.34375 19.136719 17.34375 18.5 C 17.34375 17.863281 17.863281 17.34375 18.5 17.34375 Z M 33.761719 21.996094 C 33.234375 21.996094 32.808594 22.425781 32.808594 22.953125 C 32.808594 23.476562 33.234375 23.90625 33.761719 23.90625 C 34.289062 23.90625 34.714844 23.476562 34.714844 22.953125 C 34.714844 22.425781 34.289062 21.996094 33.761719 21.996094 Z M 33.761719 21.996094 "/>
</g>
</svg>
