<?xml version="1.0" encoding="UTF-8"?>
<svg xmlns="http://www.w3.org/2000/svg" xmlns:xlink="http://www.w3.org/1999/xlink" width="37pt" height="37pt" viewBox="0 0 37 37" version="1.1">
<g id="surface3869">
<path style=" stroke:none;fill-rule:nonzero;fill:#2a9d8f;fill-opacity:1;" d="M 14.453125 0 C 6.484375 0 0 6.484375 0 14.453125 C 0 19.722656 2.839844 24.34375 7.0625 26.871094 C 6.824219 28.257812 6.925781 29.691406 7.378906 31.066406 C 8.113281 33.265625 9.65625 35.042969 11.726562 36.082031 C 12.96875 36.703125 14.292969 37 15.597656 37 C 18.722656 37 21.734375 35.300781 23.28125 32.363281 C 23.421875 32.367188 23.5625 32.375 23.703125 32.375 C 30.398438 32.375 35.84375 26.929688 35.84375 20.234375 C 35.84375 14.964844 32.460938 10.484375 27.757812 8.808594 C 25.554688 3.636719 20.421875 0 14.453125 0 Z M 14.453125 1.15625 C 21.785156 1.15625 27.75 7.121094 27.75 14.453125 C 27.75 21.785156 21.785156 27.75 14.453125 27.75 C 7.121094 27.75 1.15625 21.785156 1.15625 14.453125 C 1.15625 7.121094 7.121094 1.15625 14.453125 1.15625 Z M 14.453125 2.890625 C 8.078125 2.890625 2.890625 8.078125 2.890625 14.453125 C 2.890625 20.828125 8.078125 26.015625 14.453125 26.015625 C 20.828125 26.015625 26.015625 20.828125 26.015625 14.453125 C 26.015625 11.1875 24.625 8.058594 22.195312 5.871094 C 21.960938 5.65625 21.597656 5.671875 21.382812 5.910156 C 21.167969 6.148438 21.1875 6.511719 21.425781 6.726562 C 23.609375 8.695312 24.859375 11.511719 24.859375 14.453125 C 24.859375 20.191406 20.191406 24.859375 14.453125 24.859375 C 8.714844 24.859375 4.046875 20.191406 4.046875 14.453125 C 4.046875 8.714844 8.714844 4.046875 14.453125 4.046875 C 15.035156 4.046875 15.617188 4.09375 16.183594 4.191406 C 16.496094 4.242188 16.796875 4.03125 16.847656 3.71875 C 16.902344 3.402344 16.6875 3.101562 16.375 3.046875 C 15.742188 2.941406 15.097656 2.890625 14.453125 2.890625 Z M 18.46875 3.652344 C 18.242188 3.660156 18.03125 3.796875 17.945312 4.019531 C 17.828125 4.316406 17.972656 4.652344 18.273438 4.769531 C 18.746094 4.957031 19.214844 5.183594 19.664062 5.441406 C 19.753906 5.496094 19.851562 5.519531 19.953125 5.519531 C 20.152344 5.519531 20.34375 5.414062 20.453125 5.230469 C 20.613281 4.953125 20.515625 4.601562 20.242188 4.441406 C 19.746094 4.15625 19.226562 3.902344 18.695312 3.695312 C 18.621094 3.664062 18.542969 3.652344 18.46875 3.652344 Z M 14.453125 6.9375 C 14.132812 6.9375 13.875 7.195312 13.875 7.515625 L 13.875 8.671875 C 12.597656 8.671875 11.5625 9.707031 11.5625 10.984375 L 11.5625 12.71875 C 11.5625 13.996094 12.597656 15.03125 13.875 15.03125 L 15.03125 15.03125 C 15.667969 15.03125 16.1875 15.550781 16.1875 16.1875 L 16.1875 17.921875 C 16.1875 18.558594 15.667969 19.078125 15.03125 19.078125 L 15.03125 16.1875 C 15.03125 15.867188 14.773438 15.609375 14.453125 15.609375 C 14.132812 15.609375 13.875 15.867188 13.875 16.1875 L 13.875 19.078125 C 13.238281 19.078125 12.71875 18.558594 12.71875 17.921875 C 12.71875 17.601562 12.460938 17.34375 12.140625 17.34375 C 11.820312 17.34375 11.5625 17.601562 11.5625 17.921875 C 11.5625 19.199219 12.597656 20.234375 13.875 20.234375 L 13.875 21.390625 C 13.875 21.710938 14.132812 21.96875 14.453125 21.96875 C 14.773438 21.96875 15.03125 21.710938 15.03125 21.390625 L 15.03125 20.234375 C 16.308594 20.234375 17.34375 19.199219 17.34375 17.921875 L 17.34375 16.1875 C 17.34375 14.910156 16.308594 13.875 15.03125 13.875 L 15.03125 10.984375 C 15.03125 10.664062 14.773438 10.40625 14.453125 10.40625 C 14.132812 10.40625 13.875 10.664062 13.875 10.984375 L 13.875 13.875 C 13.238281 13.875 12.71875 13.355469 12.71875 12.71875 L 12.71875 10.984375 C 12.71875 10.347656 13.238281 9.828125 13.875 9.828125 L 15.03125 9.828125 C 15.667969 9.828125 16.1875 10.347656 16.1875 10.984375 C 16.1875 11.304688 16.445312 11.5625 16.765625 11.5625 C 17.085938 11.5625 17.34375 11.304688 17.34375 10.984375 C 17.34375 9.707031 16.308594 8.671875 15.03125 8.671875 L 15.03125 7.515625 C 15.03125 7.195312 14.773438 6.9375 14.453125 6.9375 Z M 28.285156 10.269531 C 32.058594 12.007812 34.6875 15.816406 34.6875 20.234375 C 34.6875 26.292969 29.761719 31.21875 23.703125 31.21875 C 21.066406 31.21875 18.65625 30.273438 16.765625 28.71875 C 23.640625 27.609375 28.90625 21.636719 28.90625 14.453125 C 28.90625 13 28.6875 11.59375 28.285156 10.269531 Z M 6.585938 15.730469 C 6.511719 15.71875 6.433594 15.71875 6.355469 15.734375 C 6.046875 15.808594 5.851562 16.121094 5.921875 16.429688 C 6.464844 18.765625 7.960938 20.800781 10.035156 22.015625 C 10.128906 22.066406 10.226562 22.09375 10.328125 22.09375 C 10.527344 22.09375 10.71875 21.988281 10.828125 21.804688 C 10.988281 21.53125 10.894531 21.175781 10.621094 21.015625 C 8.820312 19.960938 7.519531 18.195312 7.050781 16.167969 C 6.996094 15.9375 6.808594 15.769531 6.585938 15.730469 Z M 31.214844 16.625 C 31.140625 16.621094 31.066406 16.632812 30.992188 16.667969 L 29.917969 17.101562 C 29.621094 17.21875 29.480469 17.554688 29.597656 17.851562 C 29.691406 18.078125 29.90625 18.214844 30.136719 18.214844 C 30.207031 18.214844 30.28125 18.199219 30.351562 18.171875 L 31.425781 17.738281 C 31.71875 17.621094 31.863281 17.28125 31.742188 16.984375 C 31.652344 16.761719 31.441406 16.628906 31.214844 16.625 Z M 30.640625 19.65625 C 30.320312 19.65625 30.0625 19.914062 30.0625 20.234375 C 30.0625 20.554688 30.320312 20.8125 30.640625 20.8125 L 31.796875 20.8125 C 32.117188 20.8125 32.375 20.554688 32.375 20.234375 C 32.375 19.914062 32.117188 19.65625 31.796875 19.65625 Z M 30.089844 22.367188 C 29.863281 22.367188 29.648438 22.5 29.558594 22.71875 C 29.429688 23.015625 29.566406 23.351562 29.863281 23.476562 L 30.925781 23.929688 C 31 23.960938 31.078125 23.972656 31.152344 23.972656 C 31.378906 23.972656 31.589844 23.84375 31.6875 23.621094 C 31.808594 23.328125 31.671875 22.988281 31.378906 22.867188 L 30.316406 22.414062 C 30.242188 22.382812 30.164062 22.367188 30.089844 22.367188 Z M 28.609375 24.5625 C 28.460938 24.5625 28.3125 24.617188 28.199219 24.730469 C 27.972656 24.957031 27.972656 25.324219 28.199219 25.546875 L 29.015625 26.367188 C 29.128906 26.480469 29.277344 26.535156 29.425781 26.535156 C 29.574219 26.535156 29.722656 26.480469 29.835938 26.367188 C 30.058594 26.140625 30.058594 25.773438 29.835938 25.546875 L 29.015625 24.730469 C 28.902344 24.617188 28.753906 24.5625 28.609375 24.5625 Z M 26.3125 26.089844 C 26.234375 26.085938 26.160156 26.097656 26.085938 26.128906 C 25.789062 26.25 25.648438 26.585938 25.765625 26.882812 L 26.199219 27.957031 C 26.289062 28.179688 26.503906 28.316406 26.734375 28.316406 C 26.808594 28.316406 26.878906 28.304688 26.949219 28.273438 C 27.246094 28.152344 27.390625 27.816406 27.269531 27.523438 L 26.835938 26.449219 C 26.746094 26.226562 26.535156 26.09375 26.3125 26.089844 Z M 23.703125 26.59375 C 23.382812 26.59375 23.125 26.851562 23.125 27.171875 L 23.125 28.328125 C 23.125 28.648438 23.382812 28.90625 23.703125 28.90625 C 24.023438 28.90625 24.28125 28.648438 24.28125 28.328125 L 24.28125 27.171875 C 24.28125 26.851562 24.023438 26.59375 23.703125 26.59375 Z M 8.160156 27.464844 C 10.066406 28.386719 12.199219 28.90625 14.453125 28.90625 C 14.707031 28.90625 14.964844 28.898438 15.214844 28.886719 C 17.023438 30.664062 19.382812 31.878906 22.011719 32.25 C 19.996094 35.542969 15.757812 36.804688 12.246094 35.050781 C 10.449219 34.148438 9.113281 32.605469 8.476562 30.703125 C 8.125 29.640625 8.03125 28.539062 8.160156 27.464844 Z M 10.507812 30.59375 C 10.433594 30.601562 10.359375 30.625 10.289062 30.664062 C 10.011719 30.820312 9.914062 31.171875 10.070312 31.453125 C 10.691406 32.558594 11.625 33.445312 12.761719 34.015625 C 13.378906 34.328125 14.039062 34.53125 14.71875 34.625 C 14.746094 34.632812 14.773438 34.632812 14.800781 34.632812 C 15.082031 34.632812 15.332031 34.425781 15.371094 34.136719 C 15.417969 33.820312 15.199219 33.527344 14.878906 33.484375 C 14.324219 33.402344 13.785156 33.234375 13.277344 32.980469 C 12.347656 32.515625 11.585938 31.789062 11.074219 30.882812 C 10.957031 30.675781 10.730469 30.570312 10.507812 30.59375 Z M 18.75 32.539062 C 18.675781 32.554688 18.605469 32.585938 18.539062 32.628906 C 18.132812 32.90625 17.6875 33.121094 17.21875 33.277344 C 16.917969 33.375 16.753906 33.699219 16.847656 34.003906 C 16.929688 34.25 17.15625 34.40625 17.398438 34.40625 C 17.457031 34.40625 17.519531 34.394531 17.578125 34.375 C 18.148438 34.1875 18.691406 33.925781 19.1875 33.585938 C 19.453125 33.40625 19.519531 33.046875 19.34375 32.78125 C 19.207031 32.585938 18.972656 32.496094 18.75 32.539062 Z M 18.75 32.539062 "/>
</g>
</svg>
