<?xml version="1.0" encoding="UTF-8"?>
<svg xmlns="http://www.w3.org/2000/svg" xmlns:xlink="http://www.w3.org/1999/xlink" width="40pt" height="40pt" viewBox="0 0 48 48" version="1.1">
<g id="surface18018">
<path style=" stroke:none;fill-rule:nonzero;fill:rgb(16.470588%,61.568627%,56.078431%);fill-opacity:1;" d="M 22.738281 1.949219 C 22.097656 1.929688 21.480469 2.171875 20.96875 2.550781 C 20.460938 2.929688 20.003906 3.425781 19.558594 4.050781 C 19.222656 4.527344 18.890625 4.730469 18.300781 4.859375 C 17.710938 4.992188 16.890625 4.980469 15.929688 4.980469 C 14.859375 4.980469 14.082031 5.074219 13.441406 5.308594 C 12.925781 5.496094 12.457031 5.863281 12.210938 6.328125 C 12.199219 6.359375 12.1875 6.390625 12.179688 6.421875 C 12.167969 6.441406 12.15625 6.457031 12.148438 6.480469 C 12.140625 6.5 12.128906 6.519531 12.121094 6.539062 C 12.101562 6.59375 12.070312 6.636719 12.058594 6.691406 C 11.90625 7.335938 12.125 7.878906 12.390625 8.308594 C 12.652344 8.734375 13 9.097656 13.351562 9.421875 C 13.75 9.820312 14.601562 10.546875 15.421875 11.851562 C 16.160156 13.023438 16.695312 14.621094 16.648438 16.53125 C 13.46875 17.5 10.433594 19.816406 8.101562 22.769531 C 5.570312 25.976562 3.839844 29.886719 3.839844 33.691406 C 3.839844 38.382812 5.308594 41.722656 8.640625 43.621094 C 11.96875 45.515625 16.890625 46.078125 24 46.078125 C 31.109375 46.078125 36.03125 45.515625 39.359375 43.621094 C 42.691406 41.722656 44.160156 38.382812 44.160156 33.691406 C 44.160156 26.429688 38.472656 19.785156 31.921875 16.890625 C 32.382812 16.828125 32.859375 16.785156 33.359375 16.800781 C 34.976562 16.839844 36.703125 17.328125 38.191406 18.898438 C 38.414062 19.1875 38.785156 19.328125 39.144531 19.253906 C 39.503906 19.175781 39.792969 18.902344 39.882812 18.546875 C 39.972656 18.195312 39.851562 17.816406 39.570312 17.578125 C 37.828125 15.738281 35.722656 15.042969 33.839844 14.910156 C 35.414062 14.25 37.226562 14.050781 39.390625 15.238281 C 39.695312 15.453125 40.089844 15.472656 40.417969 15.292969 C 40.738281 15.109375 40.925781 14.757812 40.902344 14.386719 C 40.875 14.015625 40.636719 13.695312 40.289062 13.558594 C 38.941406 12.816406 37.65625 12.515625 36.449219 12.511719 C 33.730469 12.496094 31.445312 13.941406 29.941406 14.96875 C 29.722656 11.472656 31.703125 8.679688 31.949219 8.371094 L 31.980469 8.339844 L 32.011719 8.28125 C 32.34375 7.753906 32.863281 7.007812 33.089844 6.121094 C 33.203125 5.675781 33.265625 5.09375 32.878906 4.558594 C 32.492188 4.027344 31.839844 3.839844 31.199219 3.839844 C 30 3.839844 28.917969 4.25 28.050781 4.410156 C 27.183594 4.570312 26.746094 4.546875 26.308594 4.109375 L 26.308594 4.140625 C 26.300781 4.132812 26.289062 4.148438 26.28125 4.140625 C 25.03125 2.84375 24.019531 1.988281 22.738281 1.949219 Z M 22.679688 3.871094 C 23.027344 3.882812 23.785156 4.269531 24.929688 5.460938 L 24.960938 5.460938 L 24.960938 5.488281 C 25.964844 6.496094 27.332031 6.46875 28.410156 6.269531 C 29.222656 6.121094 29.996094 5.917969 30.628906 5.820312 C 30.640625 5.890625 30.65625 5.894531 30.570312 6.03125 C 30.484375 6.164062 30.285156 6.394531 29.96875 6.660156 C 29.339844 7.191406 28.289062 7.871094 27.179688 8.878906 C 26.726562 9.296875 26.1875 9.578125 25.769531 9.628906 C 25.355469 9.683594 25.113281 9.601562 24.839844 9.269531 L 24.808594 9.269531 C 24.324219 8.664062 23.882812 8.203125 23.371094 7.890625 C 22.84375 7.570312 22.226562 7.410156 21.660156 7.5 C 20.539062 7.675781 19.828125 8.484375 18.960938 9.300781 L 18.929688 9.300781 L 18.929688 9.269531 C 18.433594 9.734375 17.847656 9.890625 16.949219 9.511719 C 16.191406 9.191406 15.257812 8.390625 14.371094 7.078125 C 14.699219 6.988281 15.179688 6.898438 15.929688 6.898438 C 16.890625 6.898438 17.820312 6.921875 18.71875 6.71875 C 19.621094 6.515625 20.496094 6.03125 21.121094 5.160156 L 21.148438 5.160156 C 21.523438 4.632812 21.851562 4.269531 22.109375 4.078125 C 22.367188 3.890625 22.507812 3.867188 22.679688 3.871094 Z M 21.960938 9.421875 C 22.078125 9.402344 22.15625 9.375 22.378906 9.511719 C 22.605469 9.644531 22.921875 9.945312 23.339844 10.46875 L 23.339844 10.5 L 23.371094 10.5 C 24.054688 11.320312 25.082031 11.636719 26.011719 11.519531 C 26.9375 11.402344 27.796875 10.960938 28.5 10.320312 C 28.601562 10.226562 28.699219 10.171875 28.800781 10.078125 C 28.15625 11.640625 27.644531 13.726562 28.050781 16.109375 C 23.609375 18.265625 20.054688 17.125 18.691406 16.5 C 18.726562 14.542969 18.160156 12.863281 17.460938 11.550781 C 18.496094 11.652344 19.511719 11.375 20.25 10.679688 C 21.105469 9.875 21.71875 9.457031 21.960938 9.421875 Z M 29.039062 17.761719 C 35.675781 19.703125 42.238281 26.730469 42.238281 33.691406 C 42.238281 38.019531 41.171875 40.410156 38.429688 41.96875 C 35.6875 43.53125 31 44.160156 24 44.160156 C 17 44.160156 12.3125 43.53125 9.570312 41.96875 C 6.828125 40.410156 5.761719 38.019531 5.761719 33.691406 C 5.761719 30.484375 7.28125 26.875 9.601562 23.941406 C 11.886719 21.046875 14.933594 18.832031 17.761719 18.148438 C 19.367188 18.875 23.808594 20.355469 29.039062 17.761719 Z M 24.238281 24 C 20.390625 24 19.441406 26.820312 19.441406 28.289062 C 19.441406 30.003906 20.109375 31.070312 20.398438 31.558594 L 19.199219 31.558594 L 19.199219 32.519531 L 21 32.519531 C 21.128906 32.800781 21.511719 33.734375 21.511719 34.5 C 21.511719 36.742188 19.496094 38.054688 19.199219 38.25 L 20.191406 39.628906 C 20.511719 39.421875 21.230469 38.910156 22.289062 38.910156 C 23.757812 38.910156 25.300781 39.75 26.609375 39.75 C 28.308594 39.75 29.28125 39.160156 29.699219 38.789062 L 28.769531 37.410156 C 28.515625 37.605469 27.71875 38.191406 26.910156 38.191406 C 25.996094 38.191406 24.386719 37.5 23.128906 37.5 C 22.144531 37.5 21.277344 37.976562 20.910156 38.128906 L 20.878906 38.070312 C 21.1875 37.816406 23.308594 36.421875 23.308594 34.109375 C 23.308594 33.496094 23.003906 32.746094 22.890625 32.519531 L 25.769531 32.519531 L 25.769531 31.589844 L 22.441406 31.589844 C 22.3125 31.339844 21.328125 29.84375 21.328125 28.351562 C 21.328125 27.734375 21.863281 25.589844 24.359375 25.589844 C 27.144531 25.589844 27.390625 28.191406 27.421875 29.429688 L 29.21875 29.429688 C 29.246094 27.613281 28.703125 24 24.238281 24 Z M 24.238281 24 "/>
</g>
</svg>
