<?xml version="1.0" encoding="UTF-8"?>
<svg xmlns="http://www.w3.org/2000/svg" xmlns:xlink="http://www.w3.org/1999/xlink" width="37pt" height="37pt" viewBox="0 0 37 37" version="1.1">
<g id="surface1337">
<path style=" stroke:none;fill-rule:nonzero;fill:rgb(0.784314%,46.666667%,74.117647%);fill-opacity:1;" d="M 31.605469 3.855469 L 5.394531 3.855469 L 7.707031 30.0625 L 18.5 33.144531 L 29.292969 30.0625 Z M 31.605469 3.855469 "/>
<path style=" stroke:none;fill-rule:nonzero;fill:rgb(1.176471%,60.784314%,89.803922%);fill-opacity:1;" d="M 18.5 6.167969 L 18.5 30.757812 L 27.132812 28.289062 L 29.058594 6.167969 Z M 18.5 6.167969 "/>
<path style=" stroke:none;fill-rule:nonzero;fill:rgb(100%,100%,100%);fill-opacity:1;" d="M 25.515625 10.019531 L 18.5 10.019531 L 18.5 13.105469 L 22.277344 13.105469 L 22.046875 16.1875 L 18.5 16.1875 L 18.5 19.269531 L 21.890625 19.269531 L 21.660156 22.738281 L 18.5 23.820312 L 18.5 27.054688 L 24.589844 25.050781 L 25.128906 16.1875 Z M 25.515625 10.019531 "/>
<path style=" stroke:none;fill-rule:nonzero;fill:rgb(93.333333%,93.333333%,93.333333%);fill-opacity:1;" d="M 18.5 10.019531 L 18.5 13.105469 L 11.640625 13.105469 L 11.410156 10.019531 Z M 14.953125 16.1875 L 15.109375 19.269531 L 18.5 19.269531 L 18.5 16.1875 Z M 15.261719 20.8125 L 12.179688 20.8125 L 12.410156 25.050781 L 18.5 27.054688 L 18.5 23.820312 L 15.339844 22.738281 Z M 15.261719 20.8125 "/>
</g>
</svg>
