<?xml version="1.0" encoding="UTF-8"?>
<svg xmlns="http://www.w3.org/2000/svg" xmlns:xlink="http://www.w3.org/1999/xlink" width="48pt" height="48pt" viewBox="0 0 48 48" version="1.1">
<g id="surface684">
<path style=" stroke:none;fill-rule:nonzero;fill:rgb(96.470588%,80.392157%,27.058824%);fill-opacity:1;" d="M 8.25 3.75 L 8.25 44.25 L 39.75 44.25 L 39.75 3.75 Z M 17.25 7.5 C 18.492188 7.5 19.5 8.527344 19.5 9.796875 L 19.5 10.125 C 19.5 11.394531 18.535156 12.75 17.25 12.75 C 15.964844 12.75 15 11.394531 15 10.125 L 15 9.796875 C 15 8.527344 16.007812 7.5 17.25 7.5 Z M 24.75 10.5 L 36 10.5 L 36 12.75 L 24.75 12.75 Z M 17.25 14.25 C 19.019531 14.25 20.566406 14.667969 21.433594 14.957031 C 21.882812 15.109375 22.214844 15.484375 22.304688 15.945312 L 22.5 16.953125 C 21.273438 18.503906 19.378906 19.5 17.25 19.5 C 15.117188 19.5 13.226562 18.503906 12 16.953125 L 12.199219 15.945312 C 12.289062 15.484375 12.621094 15.105469 13.070312 14.957031 C 13.933594 14.667969 15.484375 14.25 17.25 14.25 Z M 24.75 15.75 L 33.75 15.75 L 33.75 18 L 24.75 18 Z M 11.25 22.5 L 36.75 22.5 L 36.75 41.25 L 11.25 41.25 Z M 14.25 25.5 L 14.25 27.75 L 18 27.75 L 18 25.5 Z M 20.25 25.5 L 20.25 27.75 L 33.75 27.75 L 33.75 25.5 Z M 14.25 30.75 L 14.25 33 L 18 33 L 18 30.75 Z M 20.25 30.75 L 20.25 33 L 33.75 33 L 33.75 30.75 Z M 14.25 36 L 14.25 38.25 L 18 38.25 L 18 36 Z M 20.25 36 L 20.25 38.25 L 30.75 38.25 L 30.75 36 Z M 20.25 36 "/>
</g>
</svg>
