<?xml version="1.0" encoding="UTF-8"?>
<svg xmlns="http://www.w3.org/2000/svg" xmlns:xlink="http://www.w3.org/1999/xlink" width="37pt" height="37pt" viewBox="0 0 37 37" version="1.1">
<g id="surface5014">
<path style=" stroke:none;fill-rule:nonzero;fill:rgb(96.470588%,80.392157%,27.058824%);fill-opacity:1;" d="M 18.5 1.480469 C 9.113281 1.480469 1.480469 9.113281 1.480469 18.5 C 1.480469 27.886719 9.113281 35.519531 18.5 35.519531 C 27.886719 35.519531 35.519531 27.886719 35.519531 18.5 C 35.519531 9.113281 27.886719 1.480469 18.5 1.480469 Z M 9.621094 11.839844 L 27.378906 11.839844 L 27.378906 12.71875 C 25.707031 14.167969 19.984375 19.136719 19.488281 19.566406 C 19.085938 19.917969 18.6875 19.980469 18.5 19.980469 C 18.3125 19.980469 17.914062 19.921875 17.511719 19.566406 L 17.507812 19.566406 C 17.035156 19.152344 11.722656 14.5625 9.621094 12.746094 Z M 27.378906 14.679688 L 27.378906 22.339844 L 22.742188 18.707031 C 24.539062 17.144531 25.789062 16.058594 27.378906 14.679688 Z M 9.621094 14.703125 C 11.367188 16.210938 12.5 17.191406 14.246094 18.707031 L 9.621094 22.304688 Z M 15.390625 19.691406 C 15.671875 19.933594 16.472656 20.628906 16.539062 20.683594 C 17.242188 21.296875 17.996094 21.460938 18.5 21.460938 C 19.003906 21.460938 19.757812 21.296875 20.460938 20.683594 C 20.53125 20.625 21.316406 19.945312 21.601562 19.695312 L 27.378906 24.21875 L 27.378906 25.160156 L 9.621094 25.160156 L 9.621094 24.179688 Z M 15.390625 19.691406 "/>
</g>
</svg>
