<?xml version="1.0" encoding="UTF-8"?>
<svg xmlns="http://www.w3.org/2000/svg" xmlns:xlink="http://www.w3.org/1999/xlink" width="37pt" height="37pt" viewBox="0 0 37 37" version="1.1">
<g id="surface1218">
<path style=" stroke:none;fill-rule:nonzero;fill:rgb(96.470588%,80.392157%,27.058824%);fill-opacity:1;" d="M 7.515625 5.78125 C 5.355469 9.160156 4.882812 11.792969 4.847656 13.363281 C 6.9375 11.5625 10.40625 10.40625 13.710938 10.386719 C 12.757812 9.101562 10.921875 7.308594 7.515625 5.78125 Z M 29.484375 5.78125 C 26.046875 7.324219 24.210938 9.132812 23.261719 10.417969 C 26.59375 10.40625 30.640625 12.140625 32.152344 13.742188 C 32.1875 12.242188 31.832031 9.453125 29.484375 5.78125 Z M 18.5 10.695312 C 16.503906 10.695312 14.507812 10.984375 12.246094 11.5625 C 7.628906 12.746094 3.691406 15.566406 3.957031 20.328125 L 4.050781 22.003906 C 4.09375 22.832031 4.242188 23.621094 4.460938 24.367188 C 3.363281 24.488281 1.765625 24.773438 0.320312 25.5 C 0.0351562 25.640625 -0.0820312 25.988281 0.0625 26.273438 C 0.203125 26.558594 0.550781 26.675781 0.835938 26.53125 C 2.246094 25.828125 3.875 25.59375 4.871094 25.503906 C 5.179688 26.222656 5.5625 26.894531 6.019531 27.511719 C 4.496094 27.914062 2.417969 28.800781 0.710938 30.847656 C 0.574219 31.007812 0.53125 31.226562 0.601562 31.425781 C 0.671875 31.621094 0.84375 31.765625 1.054688 31.800781 C 1.261719 31.835938 1.46875 31.753906 1.601562 31.589844 C 3.34375 29.5 5.503906 28.753906 6.84375 28.484375 C 8.859375 30.570312 11.777344 31.796875 15.011719 31.796875 L 21.988281 31.796875 C 25.222656 31.796875 28.140625 30.570312 30.15625 28.484375 C 31.496094 28.753906 33.65625 29.5 35.398438 31.589844 C 35.53125 31.753906 35.738281 31.835938 35.945312 31.800781 C 36.15625 31.765625 36.328125 31.621094 36.398438 31.425781 C 36.46875 31.226562 36.425781 31.007812 36.289062 30.847656 C 34.582031 28.800781 32.503906 27.914062 30.980469 27.511719 C 31.4375 26.894531 31.820312 26.222656 32.128906 25.503906 C 33.125 25.59375 34.753906 25.828125 36.164062 26.53125 C 36.449219 26.675781 36.796875 26.558594 36.9375 26.273438 C 37.082031 25.988281 36.964844 25.640625 36.679688 25.5 C 35.234375 24.773438 33.636719 24.488281 32.539062 24.367188 C 32.757812 23.621094 32.90625 22.832031 32.949219 22.003906 L 33.042969 20.328125 C 33.308594 15.566406 29.371094 12.746094 24.753906 11.5625 C 22.492188 10.984375 20.496094 10.695312 18.5 10.695312 Z M 13.179688 17.476562 C 13.355469 17.472656 13.535156 17.476562 13.710938 17.488281 C 16.890625 17.679688 20.109375 17.679688 23.289062 17.488281 C 26.128906 17.3125 28.839844 18.957031 29.757812 21.648438 C 29.765625 21.671875 29.777344 21.699219 29.785156 21.722656 C 30.386719 23.578125 29.765625 25.589844 28.390625 26.972656 C 26.832031 28.539062 24.578125 29.484375 21.988281 29.484375 L 15.011719 29.484375 C 12.421875 29.484375 10.167969 28.539062 8.609375 26.972656 C 7.234375 25.589844 6.613281 23.578125 7.21875 21.722656 C 7.226562 21.699219 7.234375 21.671875 7.242188 21.648438 C 8.101562 19.125 10.539062 17.523438 13.179688 17.476562 Z M 13.585938 19.65625 C 12.789062 19.65625 12.140625 20.820312 12.140625 22.257812 C 12.140625 23.695312 12.789062 24.859375 13.585938 24.859375 C 14.382812 24.859375 15.03125 23.695312 15.03125 22.257812 C 15.03125 20.820312 14.382812 19.65625 13.585938 19.65625 Z M 23.414062 19.65625 C 22.617188 19.65625 21.96875 20.820312 21.96875 22.257812 C 21.96875 23.695312 22.617188 24.859375 23.414062 24.859375 C 24.210938 24.859375 24.859375 23.695312 24.859375 22.257812 C 24.859375 20.820312 24.210938 19.65625 23.414062 19.65625 Z M 18.5 23.703125 C 17.863281 23.703125 17.34375 24.222656 17.34375 24.859375 C 17.34375 25.496094 17.863281 26.015625 18.5 26.015625 C 19.136719 26.015625 19.65625 25.496094 19.65625 24.859375 C 19.65625 24.222656 19.136719 23.703125 18.5 23.703125 Z M 20.832031 26.007812 C 20.644531 26.003906 20.464844 26.09375 20.351562 26.246094 C 19.929688 26.808594 19.261719 27.171875 18.5 27.171875 C 17.738281 27.171875 17.070312 26.808594 16.648438 26.246094 C 16.527344 26.078125 16.320312 25.988281 16.113281 26.011719 C 15.90625 26.039062 15.730469 26.171875 15.648438 26.363281 C 15.570312 26.554688 15.597656 26.777344 15.726562 26.941406 C 16.359375 27.78125 17.367188 28.328125 18.5 28.328125 C 19.628906 28.328125 20.640625 27.785156 21.273438 26.941406 C 21.40625 26.769531 21.433594 26.535156 21.339844 26.339844 C 21.246094 26.144531 21.050781 26.015625 20.832031 26.007812 Z M 20.832031 26.007812 "/>
</g>
</svg>
