<?xml version="1.0" encoding="UTF-8"?>
<svg xmlns="http://www.w3.org/2000/svg" xmlns:xlink="http://www.w3.org/1999/xlink" width="48pt" height="48pt" viewBox="0 0 48 48" version="1.1">
<g id="surface297">
<path style=" stroke:none;fill-rule:nonzero;fill:rgb(96.470588%,80.392157%,27.058824%);fill-opacity:1;" d="M 5.25 33.75 L 5.460938 35.847656 C 5.765625 38.914062 8.347656 41.25 11.429688 41.25 L 36.628906 41.25 C 39.6875 41.25 42.253906 38.953125 42.59375 35.914062 L 42.75 34.5 Z M 44.25 31.5 C 44.25 31.5 10.5 31.5 7.5 31.5 C 4.5 31.5 2.25 30.585938 2.25 28.417969 C 2.25 26.25 3.75 24.75 3.75 24.75 L 10.5 24.75 C 14.25 24.75 37.5 29.25 37.5 29.25 L 39.75 24.75 C 41.25 24.75 45.75 25.933594 45.75 28.339844 C 45.75 30.75 44.25 31.5 44.25 31.5 Z M 42.75 18 L 5.25 18.75 C 5.25 18.75 3.75 19.5 3.75 22.5 C 6.75 22.5 10.5 21.75 10.5 21.75 C 10.5 21.75 13.5 22.5 15.75 22.5 C 18 22.5 22.5 21 22.5 21 L 30.058594 22.5 L 33 21 C 33 21 38.25 22.5 41.25 22.5 C 42.75 22.5 44.25 20.25 44.25 20.25 Z M 24 6 C 12.75 6 5.25 10.5 5.25 16.5 L 42.75 16.5 C 42.75 10.5 35.25 6 24 6 Z M 15.375 12 C 14.753906 12 14.25 11.664062 14.25 11.25 C 14.25 10.835938 14.753906 10.5 15.375 10.5 C 15.996094 10.5 16.5 10.835938 16.5 11.25 C 16.5 11.664062 15.996094 12 15.375 12 Z M 20.25 12 C 20.25 11.171875 21.089844 10.5 22.125 10.5 C 23.160156 10.5 24 11.171875 24 12 C 24 12.828125 23.160156 13.5 22.125 13.5 C 21.089844 13.5 20.25 12.828125 20.25 12 Z M 20.25 12 "/>
</g>
</svg>
