<?xml version="1.0" encoding="UTF-8"?>
<svg xmlns="http://www.w3.org/2000/svg" xmlns:xlink="http://www.w3.org/1999/xlink" width="37pt" height="37pt" viewBox="0 0 37 37" version="1.1">
<g id="surface7877">
<path style=" stroke:none;fill-rule:nonzero;fill:#2a9d8f;fill-opacity:1;" d="M 18.09375 3.925781 C 13.410156 4.144531 9.222656 8.304688 8.972656 12.988281 C 8.824219 15.835938 9.925781 18.441406 11.773438 20.289062 C 12.5625 21.074219 13.058594 22.117188 13.0625 23.1875 C 13.070312 25.078125 14.386719 26.59375 15.953125 26.59375 L 18.5 26.59375 C 18.820312 26.59375 19.078125 26.335938 19.078125 26.015625 L 19.078125 18.699219 C 19.714844 18.613281 20.339844 18.417969 20.847656 18.011719 C 21.511719 17.480469 21.96875 16.636719 21.96875 15.609375 C 21.972656 15.402344 21.863281 15.207031 21.683594 15.101562 C 21.503906 14.996094 21.277344 14.996094 21.097656 15.101562 C 20.917969 15.207031 20.808594 15.402344 20.8125 15.609375 C 20.8125 16.316406 20.546875 16.773438 20.125 17.109375 C 19.855469 17.324219 19.453125 17.363281 19.078125 17.445312 L 19.078125 15.609375 C 19.078125 14.210938 18.085938 13.296875 17.054688 13.296875 C 16.023438 13.296875 15.03125 14.210938 15.03125 15.609375 C 15.03125 16.636719 15.488281 17.480469 16.152344 18.011719 C 16.660156 18.417969 17.285156 18.613281 17.921875 18.699219 L 17.921875 25.4375 L 15.953125 25.4375 C 15.183594 25.4375 14.226562 24.535156 14.21875 23.183594 C 14.214844 21.761719 13.570312 20.445312 12.59375 19.46875 C 10.964844 17.84375 9.996094 15.566406 10.128906 13.046875 C 10.34375 9.03125 14.128906 5.269531 18.148438 5.082031 C 23.003906 4.855469 26.988281 8.707031 26.988281 13.507812 C 26.988281 15.917969 25.980469 18.082031 24.363281 19.617188 C 23.382812 20.550781 22.886719 21.863281 22.886719 23.183594 L 22.886719 24.359375 C 22.886719 26.238281 21.375 27.753906 19.492188 27.753906 L 16.085938 27.753906 C 15.140625 27.753906 14.363281 28.53125 14.367188 29.480469 C 14.371094 30.417969 15.144531 31.191406 16.085938 31.191406 L 21.113281 31.191406 C 21.429688 31.191406 21.675781 31.4375 21.675781 31.753906 L 21.675781 31.8125 C 21.675781 32.128906 21.429688 32.375 21.113281 32.375 L 16.183594 32.375 C 15.972656 32.371094 15.78125 32.480469 15.675781 32.660156 C 15.570312 32.839844 15.570312 33.066406 15.675781 33.246094 C 15.78125 33.425781 15.972656 33.535156 16.183594 33.53125 L 21.113281 33.53125 C 22.058594 33.53125 22.832031 32.753906 22.832031 31.8125 L 22.832031 31.753906 C 22.832031 30.8125 22.058594 30.035156 21.113281 30.035156 L 16.085938 30.035156 C 15.769531 30.035156 15.523438 29.789062 15.523438 29.472656 C 15.519531 29.152344 15.765625 28.910156 16.085938 28.910156 L 19.492188 28.910156 C 22 28.910156 24.042969 26.863281 24.042969 24.359375 L 24.042969 23.183594 C 24.042969 22.148438 24.429688 21.148438 25.160156 20.457031 C 26.996094 18.710938 28.144531 16.242188 28.144531 13.507812 C 28.144531 8.066406 23.589844 3.671875 18.09375 3.925781 Z M 17.054688 14.453125 C 17.46875 14.453125 17.921875 14.695312 17.921875 15.609375 L 17.921875 17.445312 C 17.546875 17.363281 17.144531 17.324219 16.875 17.109375 C 16.453125 16.773438 16.1875 16.316406 16.1875 15.609375 C 16.1875 14.695312 16.640625 14.453125 17.054688 14.453125 Z M 17.054688 14.453125 "/>
</g>
</svg>
