<?xml version="1.0" encoding="UTF-8"?>
<svg xmlns="http://www.w3.org/2000/svg" xmlns:xlink="http://www.w3.org/1999/xlink" width="40pt" height="40pt" viewBox="0 0 48 48" version="1.1">
<g id="surface18028">
<path style=" stroke:none;fill-rule:nonzero;fill:rgb(16.470588%,61.568627%,56.078431%);fill-opacity:1;" d="M 24.171875 3.75 C 17.886719 3.675781 12.375 7.945312 10.417969 13.917969 C 8.347656 20.238281 11.539062 25.230469 13.96875 29.023438 C 15.011719 30.65625 15.945312 32.117188 16.324219 33.394531 C 16.515625 34.042969 17.089844 34.5 17.765625 34.5 L 18.75 34.5 C 18.75 32.324219 17.414062 30.234375 15.863281 27.8125 C 14.050781 24.980469 12 21.773438 12 18 C 12 11.4375 17.292969 6.089844 23.835938 6 C 28.996094 5.933594 33.445312 9.3125 35.273438 14.136719 C 37.359375 19.652344 34.535156 24.0625 32.136719 27.8125 C 30.585938 30.234375 29.25 32.324219 29.25 34.5 L 30.234375 34.5 C 30.910156 34.5 31.484375 34.042969 31.675781 33.394531 C 32.054688 32.117188 32.988281 30.65625 34.03125 29.027344 C 35.914062 26.089844 38.25 22.433594 38.25 18 C 38.25 10.199219 31.949219 3.84375 24.171875 3.75 Z M 6.492188 4.910156 L 5.109375 6.6875 L 8.507812 9.339844 L 9.890625 7.5625 Z M 41.511719 4.914062 L 38.109375 7.566406 L 39.492188 9.339844 L 42.894531 6.6875 Z M 1.5 17.25 L 1.5 19.5 L 5.25 19.5 L 5.25 17.25 Z M 42.75 17.25 L 42.75 19.5 L 46.5 19.5 L 46.5 17.25 Z M 20.101562 18.566406 L 19.835938 18.71875 C 18.90625 19.246094 18.511719 20.375 18.890625 21.375 C 19.734375 23.613281 21 28.042969 21 34.5 L 23.25 34.5 C 23.25 24.195312 20.230469 18.792969 20.101562 18.566406 Z M 27.898438 18.566406 C 27.769531 18.792969 24.75 24.195312 24.75 34.5 L 27 34.5 C 27 28.039062 28.265625 23.613281 29.109375 21.375 C 29.488281 20.375 29.09375 19.25 28.167969 18.722656 Z M 39.492188 26.660156 L 38.109375 28.4375 L 41.507812 31.089844 L 42.890625 29.3125 Z M 8.507812 26.664062 L 5.105469 29.316406 L 6.488281 31.089844 L 9.890625 28.4375 Z M 17.25 36.75 L 17.707031 39.945312 C 17.882812 41.183594 18.808594 42.179688 20.027344 42.449219 L 21.085938 42.683594 C 21.398438 44.011719 22.578125 45 24 45 C 25.421875 45 26.601562 44.011719 26.914062 42.683594 L 27.972656 42.449219 C 29.191406 42.179688 30.117188 41.183594 30.292969 39.945312 L 30.75 36.75 Z M 17.25 36.75 "/>
</g>
</svg>
