<?xml version="1.0" encoding="UTF-8"?>
<svg xmlns="http://www.w3.org/2000/svg" xmlns:xlink="http://www.w3.org/1999/xlink" width="37pt" height="37pt" viewBox="0 0 37 37" version="1.1">
<g id="surface1991">
<path style=" stroke:none;fill-rule:nonzero;fill:rgb(96.470588%,82.745098%,59.215686%);fill-opacity:1;" d="M 2.898438 4.1875 L 6.058594 30.347656 C 6.171875 31.273438 6.832031 32.042969 7.734375 32.300781 L 17.875 35.175781 C 18.28125 35.292969 18.71875 35.296875 19.128906 35.183594 L 29.789062 32.296875 C 30.722656 32.042969 31.402344 31.246094 31.5 30.289062 L 34.128906 4.164062 C 34.199219 3.484375 33.660156 2.890625 32.96875 2.890625 L 4.058594 2.890625 C 3.359375 2.890625 2.816406 3.5 2.898438 4.1875 Z M 2.898438 4.1875 "/>
<path style=" stroke:none;fill-rule:nonzero;fill:rgb(97.647059%,89.019608%,68.235294%);fill-opacity:1;" d="M 30.269531 5.78125 L 18.5 5.78125 L 18.5 32.375 C 18.671875 32.375 18.84375 32.351562 19.011719 32.304688 L 27.683594 29.777344 C 28.445312 29.554688 28.996094 28.859375 29.074219 28.019531 L 31.214844 6.898438 C 31.269531 6.300781 30.832031 5.78125 30.269531 5.78125 Z M 30.269531 5.78125 "/>
<path style=" stroke:none;fill-rule:nonzero;fill:rgb(55.294118%,42.352941%,62.352941%);fill-opacity:1;" d="M 18.515625 35.84375 C 18.246094 35.84375 17.976562 35.808594 17.714844 35.734375 L 7.578125 32.855469 C 6.445312 32.535156 5.625 31.574219 5.484375 30.414062 L 2.324219 4.257812 C 2.265625 3.765625 2.421875 3.273438 2.75 2.902344 C 3.082031 2.527344 3.558594 2.3125 4.058594 2.3125 L 32.96875 2.3125 C 33.460938 2.3125 33.933594 2.523438 34.265625 2.886719 C 34.59375 3.25 34.753906 3.738281 34.703125 4.222656 L 32.074219 30.347656 C 31.957031 31.53125 31.097656 32.539062 29.941406 32.855469 L 19.28125 35.742188 C 19.03125 35.808594 18.773438 35.84375 18.515625 35.84375 Z M 4.058594 3.46875 C 3.886719 3.46875 3.726562 3.539062 3.613281 3.667969 C 3.503906 3.792969 3.453125 3.953125 3.472656 4.117188 L 6.632812 30.277344 C 6.71875 30.972656 7.210938 31.550781 7.894531 31.742188 L 18.03125 34.621094 C 18.339844 34.707031 18.667969 34.710938 18.976562 34.625 L 29.640625 31.738281 C 30.335938 31.550781 30.851562 30.941406 30.925781 30.230469 L 33.554688 4.109375 C 33.570312 3.945312 33.519531 3.785156 33.40625 3.664062 C 33.292969 3.539062 33.136719 3.46875 32.96875 3.46875 Z M 4.058594 3.46875 "/>
<path style=" stroke:none;fill-rule:nonzero;fill:rgb(55.294118%,42.352941%,62.352941%);fill-opacity:1;" d="M 32.953125 6.9375 C 32.632812 6.9375 32.375 6.679688 32.375 6.359375 L 32.375 5.203125 C 32.375 4.882812 32.632812 4.625 32.953125 4.625 C 33.273438 4.625 33.53125 4.882812 33.53125 5.203125 L 33.53125 6.359375 C 33.53125 6.679688 33.273438 6.9375 32.953125 6.9375 Z M 30.0625 6.9375 C 29.742188 6.9375 29.484375 6.679688 29.484375 6.359375 L 29.484375 5.203125 C 29.484375 4.882812 29.742188 4.625 30.0625 4.625 C 30.382812 4.625 30.640625 4.882812 30.640625 5.203125 L 30.640625 6.359375 C 30.640625 6.679688 30.382812 6.9375 30.0625 6.9375 Z M 27.171875 6.9375 C 26.851562 6.9375 26.59375 6.679688 26.59375 6.359375 L 26.59375 5.203125 C 26.59375 4.882812 26.851562 4.625 27.171875 4.625 C 27.492188 4.625 27.75 4.882812 27.75 5.203125 L 27.75 6.359375 C 27.75 6.679688 27.492188 6.9375 27.171875 6.9375 Z M 24.28125 6.9375 C 23.960938 6.9375 23.703125 6.679688 23.703125 6.359375 L 23.703125 5.203125 C 23.703125 4.882812 23.960938 4.625 24.28125 4.625 C 24.601562 4.625 24.859375 4.882812 24.859375 5.203125 L 24.859375 6.359375 C 24.859375 6.679688 24.601562 6.9375 24.28125 6.9375 Z M 21.390625 6.9375 C 21.070312 6.9375 20.8125 6.679688 20.8125 6.359375 L 20.8125 5.203125 C 20.8125 4.882812 21.070312 4.625 21.390625 4.625 C 21.710938 4.625 21.96875 4.882812 21.96875 5.203125 L 21.96875 6.359375 C 21.96875 6.679688 21.710938 6.9375 21.390625 6.9375 Z M 18.5 6.9375 C 18.179688 6.9375 17.921875 6.679688 17.921875 6.359375 L 17.921875 5.203125 C 17.921875 4.882812 18.179688 4.625 18.5 4.625 C 18.820312 4.625 19.078125 4.882812 19.078125 5.203125 L 19.078125 6.359375 C 19.078125 6.679688 18.820312 6.9375 18.5 6.9375 Z M 15.609375 6.9375 C 15.289062 6.9375 15.03125 6.679688 15.03125 6.359375 L 15.03125 5.203125 C 15.03125 4.882812 15.289062 4.625 15.609375 4.625 C 15.929688 4.625 16.1875 4.882812 16.1875 5.203125 L 16.1875 6.359375 C 16.1875 6.679688 15.929688 6.9375 15.609375 6.9375 Z M 12.71875 6.9375 C 12.398438 6.9375 12.140625 6.679688 12.140625 6.359375 L 12.140625 5.203125 C 12.140625 4.882812 12.398438 4.625 12.71875 4.625 C 13.039062 4.625 13.296875 4.882812 13.296875 5.203125 L 13.296875 6.359375 C 13.296875 6.679688 13.039062 6.9375 12.71875 6.9375 Z M 9.828125 6.9375 C 9.507812 6.9375 9.25 6.679688 9.25 6.359375 L 9.25 5.203125 C 9.25 4.882812 9.507812 4.625 9.828125 4.625 C 10.148438 4.625 10.40625 4.882812 10.40625 5.203125 L 10.40625 6.359375 C 10.40625 6.679688 10.148438 6.9375 9.828125 6.9375 Z M 6.9375 6.9375 C 6.617188 6.9375 6.359375 6.679688 6.359375 6.359375 L 6.359375 5.203125 C 6.359375 4.882812 6.617188 4.625 6.9375 4.625 C 7.257812 4.625 7.515625 4.882812 7.515625 5.203125 L 7.515625 6.359375 C 7.515625 6.679688 7.257812 6.9375 6.9375 6.9375 Z M 4.046875 6.9375 C 3.726562 6.9375 3.46875 6.679688 3.46875 6.359375 L 3.46875 5.203125 C 3.46875 4.882812 3.726562 4.625 4.046875 4.625 C 4.367188 4.625 4.625 4.882812 4.625 5.203125 L 4.625 6.359375 C 4.625 6.679688 4.367188 6.9375 4.046875 6.9375 Z M 4.046875 6.9375 "/>
<path style=" stroke:none;fill-rule:nonzero;fill:rgb(98.039216%,93.72549%,87.058824%);fill-opacity:1;" d="M 13.875 10.984375 C 13.875 15.800781 13.875 20.621094 13.875 25.4375 C 12.140625 25.050781 10.40625 24.667969 8.671875 24.28125 C 8.789062 25.4375 8.910156 26.59375 9.027344 27.75 C 11.605469 28.484375 14.1875 29.21875 16.765625 29.957031 L 16.765625 10.984375 C 15.800781 10.984375 14.839844 10.984375 13.875 10.984375 Z M 13.875 10.984375 "/>
<path style=" stroke:none;fill-rule:nonzero;fill:rgb(98.039216%,93.72549%,87.058824%);fill-opacity:1;" d="M 28.804688 13.902344 L 29.054688 10.984375 C 26.113281 10.984375 23.175781 10.984375 20.234375 10.984375 C 20.234375 15.222656 20.234375 19.464844 20.234375 23.703125 C 21.957031 23.304688 23.683594 22.90625 25.40625 22.507812 L 25.222656 25.246094 C 23.5625 25.695312 21.898438 26.144531 20.234375 26.59375 C 20.234375 27.75 20.234375 28.90625 20.234375 30.0625 C 22.6875 29.359375 25.140625 28.652344 27.59375 27.949219 L 28.363281 19.011719 C 26.617188 19.226562 24.871094 19.441406 23.125 19.65625 C 23.125 17.730469 23.125 15.800781 23.125 13.875 C 25.019531 13.882812 26.910156 13.894531 28.804688 13.902344 Z M 28.804688 13.902344 "/>
<path style=" stroke:none;fill-rule:nonzero;fill:rgb(55.294118%,42.352941%,62.352941%);fill-opacity:1;" d="M 16.765625 30.535156 C 16.710938 30.535156 16.660156 30.527344 16.605469 30.511719 L 8.867188 28.304688 C 8.640625 28.242188 8.476562 28.042969 8.453125 27.808594 L 8.097656 24.339844 C 8.078125 24.15625 8.148438 23.972656 8.289062 23.847656 C 8.425781 23.726562 8.613281 23.675781 8.796875 23.71875 L 13.296875 24.714844 L 13.296875 10.984375 C 13.296875 10.664062 13.554688 10.40625 13.875 10.40625 L 16.765625 10.40625 C 17.085938 10.40625 17.34375 10.664062 17.34375 10.984375 L 17.34375 29.957031 C 17.34375 30.136719 17.257812 30.308594 17.113281 30.417969 C 17.011719 30.492188 16.890625 30.535156 16.765625 30.535156 Z M 9.5625 27.300781 L 16.1875 29.191406 L 16.1875 11.5625 L 14.453125 11.5625 L 14.453125 25.4375 C 14.453125 25.613281 14.375 25.777344 14.238281 25.886719 C 14.101562 26 13.921875 26.039062 13.75 26 L 9.328125 25.019531 Z M 9.5625 27.300781 "/>
<path style=" stroke:none;fill-rule:nonzero;fill:rgb(55.294118%,42.352941%,62.352941%);fill-opacity:1;" d="M 20.234375 30.640625 C 20.109375 30.640625 19.988281 30.601562 19.886719 30.523438 C 19.742188 30.414062 19.65625 30.242188 19.65625 30.0625 L 19.65625 26.59375 C 19.65625 26.332031 19.832031 26.101562 20.082031 26.035156 L 24.671875 24.792969 L 24.777344 23.246094 L 20.363281 24.265625 C 20.195312 24.308594 20.011719 24.265625 19.875 24.15625 C 19.734375 24.046875 19.65625 23.878906 19.65625 23.703125 L 19.65625 10.984375 C 19.65625 10.664062 19.914062 10.40625 20.234375 10.40625 L 29.054688 10.40625 C 29.214844 10.40625 29.371094 10.472656 29.480469 10.59375 C 29.589844 10.714844 29.644531 10.871094 29.628906 11.035156 L 29.378906 13.953125 C 29.351562 14.253906 29.078125 14.5 28.800781 14.480469 L 23.703125 14.457031 L 23.703125 19.003906 L 28.292969 18.4375 C 28.464844 18.414062 28.640625 18.472656 28.765625 18.59375 C 28.890625 18.714844 28.953125 18.886719 28.941406 19.058594 L 28.171875 27.996094 C 28.152344 28.238281 27.984375 28.4375 27.753906 28.503906 L 20.394531 30.617188 C 20.34375 30.632812 20.289062 30.640625 20.234375 30.640625 Z M 20.8125 27.035156 L 20.8125 29.296875 L 27.054688 27.503906 L 27.726562 19.671875 L 23.195312 20.230469 C 23.03125 20.25 22.867188 20.199219 22.742188 20.089844 C 22.617188 19.980469 22.546875 19.820312 22.546875 19.65625 L 22.546875 13.875 C 22.546875 13.722656 22.609375 13.574219 22.71875 13.464844 C 22.828125 13.355469 22.957031 13.300781 23.128906 13.296875 L 28.273438 13.324219 L 28.425781 11.5625 L 20.8125 11.5625 L 20.8125 22.976562 L 25.277344 21.945312 C 25.453125 21.902344 25.640625 21.949219 25.78125 22.070312 C 25.921875 22.1875 25.996094 22.363281 25.984375 22.546875 L 25.800781 25.285156 C 25.785156 25.53125 25.613281 25.738281 25.375 25.804688 Z M 20.8125 27.035156 "/>
</g>
</svg>
