<?xml version="1.0" encoding="UTF-8"?>
<svg xmlns="http://www.w3.org/2000/svg" xmlns:xlink="http://www.w3.org/1999/xlink" width="37pt" height="37pt" viewBox="0 0 37 37" version="1.1">
<g id="surface3999">
<path style=" stroke:none;fill-rule:nonzero;fill:rgb(96.470588%,80.392157%,27.058824%);fill-opacity:1;" d="M 18.5 1.480469 C 9.117188 1.480469 1.480469 9.113281 1.480469 18.5 C 1.480469 27.886719 9.117188 35.519531 18.5 35.519531 C 27.882812 35.519531 35.519531 27.886719 35.519531 18.5 C 35.519531 9.113281 27.882812 1.480469 18.5 1.480469 Z M 13.320312 25.898438 L 10.359375 25.898438 L 10.359375 14.800781 L 13.320312 14.800781 Z M 11.839844 12.578125 C 11.023438 12.578125 10.359375 11.917969 10.359375 11.101562 C 10.359375 10.28125 11.023438 9.621094 11.839844 9.621094 C 12.65625 9.621094 13.320312 10.28125 13.320312 11.101562 C 13.320312 11.917969 12.65625 12.578125 11.839844 12.578125 Z M 27.378906 25.898438 L 24.421875 25.898438 L 24.421875 20.351562 C 24.421875 18.925781 23.253906 17.761719 21.828125 17.761719 C 20.40625 17.761719 19.238281 18.925781 19.238281 20.351562 L 19.238281 25.898438 L 16.28125 25.898438 L 16.28125 14.800781 L 19.238281 14.800781 L 19.238281 16.144531 C 20.105469 15.3125 21.277344 14.800781 22.570312 14.800781 C 25.226562 14.800781 27.378906 16.953125 27.378906 19.609375 Z M 27.378906 25.898438 "/>
</g>
</svg>
