<?xml version="1.0" encoding="UTF-8"?>
<svg xmlns="http://www.w3.org/2000/svg" xmlns:xlink="http://www.w3.org/1999/xlink" width="37pt" height="37pt" viewBox="0 0 37 37" version="1.1">
<g id="surface6539">
<path style=" stroke:none;fill-rule:nonzero;fill:rgb(12.941176%,63.921569%,40%);fill-opacity:1;" d="M 18.503906 35.011719 C 18.0625 35.011719 17.625 34.894531 17.238281 34.671875 L 13.199219 32.28125 C 12.59375 31.941406 12.886719 31.824219 13.085938 31.753906 C 13.890625 31.472656 14.054688 31.410156 14.914062 30.921875 C 15.003906 30.867188 15.121094 30.886719 15.214844 30.941406 L 18.316406 32.785156 C 18.429688 32.84375 18.589844 32.84375 18.691406 32.785156 L 30.792969 25.800781 C 30.902344 25.734375 30.976562 25.605469 30.976562 25.472656 L 30.976562 11.511719 C 30.976562 11.371094 30.902344 11.246094 30.789062 11.175781 L 18.695312 4.199219 C 18.582031 4.132812 18.433594 4.132812 18.324219 4.199219 L 6.230469 11.175781 C 6.113281 11.242188 6.039062 11.371094 6.039062 11.507812 L 6.039062 25.46875 C 6.039062 25.601562 6.109375 25.730469 6.226562 25.792969 L 9.539062 27.707031 C 11.339844 28.605469 12.4375 27.546875 12.4375 26.480469 L 12.4375 12.699219 C 12.4375 12.503906 12.59375 12.351562 12.789062 12.351562 L 14.320312 12.351562 C 14.511719 12.351562 14.671875 12.503906 14.671875 12.699219 L 14.671875 26.488281 C 14.671875 28.886719 13.363281 30.265625 11.085938 30.265625 C 10.386719 30.265625 9.835938 30.265625 8.296875 29.507812 L 5.125 27.679688 C 4.339844 27.222656 3.855469 26.375 3.855469 25.46875 L 3.855469 11.507812 C 3.855469 10.597656 4.339844 9.75 5.121094 9.300781 L 17.234375 2.3125 C 18.003906 1.878906 19.019531 1.878906 19.78125 2.3125 L 31.878906 9.304688 C 32.65625 9.753906 33.144531 10.601562 33.144531 11.511719 L 33.144531 25.472656 C 33.144531 26.378906 32.65625 27.222656 31.878906 27.679688 L 19.78125 34.664062 C 19.390625 34.890625 18.953125 35.003906 18.503906 35.003906 "/>
<path style=" stroke:none;fill-rule:nonzero;fill:rgb(12.941176%,63.921569%,40%);fill-opacity:1;" d="M 22.242188 25.390625 C 16.949219 25.390625 15.839844 22.957031 15.839844 20.921875 C 15.839844 20.726562 15.996094 20.570312 16.191406 20.570312 L 17.753906 20.570312 C 17.925781 20.570312 18.070312 20.699219 18.097656 20.867188 C 18.335938 22.460938 19.039062 23.265625 22.238281 23.265625 C 24.789062 23.265625 25.871094 22.6875 25.871094 21.335938 C 25.871094 20.554688 25.5625 19.976562 21.601562 19.589844 C 18.289062 19.265625 16.242188 18.535156 16.242188 15.882812 C 16.242188 13.441406 18.300781 11.988281 21.75 11.988281 C 25.625 11.988281 27.546875 13.332031 27.785156 16.222656 C 27.796875 16.324219 27.761719 16.417969 27.691406 16.492188 C 27.625 16.5625 27.53125 16.605469 27.433594 16.605469 L 25.863281 16.605469 C 25.699219 16.605469 25.558594 16.488281 25.523438 16.332031 C 25.144531 14.65625 24.230469 14.121094 21.746094 14.121094 C 18.960938 14.121094 18.636719 15.089844 18.636719 15.816406 C 18.636719 16.699219 19.019531 16.957031 22.773438 17.453125 C 26.492188 17.945312 28.257812 18.644531 28.257812 21.257812 C 28.257812 23.890625 26.058594 25.402344 22.226562 25.402344 "/>
</g>
</svg>
