<?xml version="1.0" encoding="UTF-8"?>
<svg xmlns="http://www.w3.org/2000/svg" xmlns:xlink="http://www.w3.org/1999/xlink" width="37pt" height="37pt" viewBox="0 0 37 37" version="1.1">
<g id="surface4553">
<path style=" stroke:none;fill-rule:nonzero;fill:rgb(92.941176%,47.058824%,60%);fill-opacity:1;" d="M 21.96875 19.078125 C 21.96875 20.992188 20.414062 22.546875 18.5 22.546875 C 16.585938 22.546875 15.03125 20.992188 15.03125 19.078125 C 15.03125 17.164062 16.585938 15.609375 18.5 15.609375 C 20.414062 15.609375 21.96875 17.164062 21.96875 19.078125 Z M 21.96875 19.078125 "/>
<path style=" stroke:none;fill-rule:nonzero;fill:rgb(55.294118%,42.352941%,62.352941%);fill-opacity:1;" d="M 18.5 23.125 C 16.269531 23.125 14.453125 21.308594 14.453125 19.078125 C 14.453125 16.847656 16.269531 15.03125 18.5 15.03125 C 20.730469 15.03125 22.546875 16.847656 22.546875 19.078125 C 22.546875 21.308594 20.730469 23.125 18.5 23.125 Z M 18.5 16.1875 C 16.90625 16.1875 15.609375 17.484375 15.609375 19.078125 C 15.609375 20.671875 16.90625 21.96875 18.5 21.96875 C 20.09375 21.96875 21.390625 20.671875 21.390625 19.078125 C 21.390625 17.484375 20.09375 16.1875 18.5 16.1875 Z M 18.5 16.1875 "/>
<path style=" stroke:none;fill-rule:nonzero;fill:rgb(55.294118%,42.352941%,62.352941%);fill-opacity:1;" d="M 18.5 26.59375 C 8.773438 26.59375 1.15625 23.292969 1.15625 19.078125 C 1.15625 14.863281 8.773438 11.5625 18.5 11.5625 C 28.226562 11.5625 35.84375 14.863281 35.84375 19.078125 C 35.84375 23.292969 28.226562 26.59375 18.5 26.59375 Z M 18.5 12.71875 C 9.726562 12.71875 2.3125 15.628906 2.3125 19.078125 C 2.3125 22.527344 9.726562 25.4375 18.5 25.4375 C 27.273438 25.4375 34.6875 22.527344 34.6875 19.078125 C 34.6875 15.628906 27.273438 12.71875 18.5 12.71875 Z M 18.5 12.71875 "/>
<path style=" stroke:none;fill-rule:nonzero;fill:rgb(55.294118%,42.352941%,62.352941%);fill-opacity:1;" d="M 11.746094 34.585938 C 11.039062 34.585938 10.394531 34.425781 9.828125 34.097656 C 8.007812 33.046875 7.269531 30.460938 7.75 26.816406 C 8.210938 23.34375 9.714844 19.261719 11.992188 15.320312 C 14.265625 11.378906 17.050781 8.03125 19.828125 5.898438 C 22.742188 3.660156 25.351562 3.007812 27.171875 4.058594 C 28.992188 5.109375 29.730469 7.695312 29.25 11.339844 C 28.789062 14.8125 27.285156 18.894531 25.007812 22.835938 C 22.734375 26.777344 19.949219 30.125 17.171875 32.257812 C 15.164062 33.796875 13.304688 34.585938 11.746094 34.585938 Z M 25.253906 4.726562 C 23.964844 4.726562 22.320312 5.445312 20.53125 6.816406 C 17.871094 8.859375 15.195312 12.082031 12.992188 15.898438 C 10.789062 19.714844 9.335938 23.644531 8.898438 26.96875 C 8.488281 30.074219 9.039062 32.304688 10.40625 33.097656 C 11.773438 33.886719 13.984375 33.246094 16.46875 31.339844 C 19.128906 29.296875 21.804688 26.074219 24.007812 22.257812 C 26.210938 18.441406 27.664062 14.511719 28.101562 11.1875 C 28.511719 8.082031 27.960938 5.851562 26.59375 5.058594 C 26.210938 4.835938 25.757812 4.726562 25.253906 4.726562 Z M 25.253906 4.726562 "/>
<path style=" stroke:none;fill-rule:nonzero;fill:rgb(55.294118%,42.352941%,62.352941%);fill-opacity:1;" d="M 25.253906 34.585938 C 23.695312 34.585938 21.835938 33.796875 19.828125 32.257812 C 17.050781 30.125 14.265625 26.777344 11.992188 22.835938 C 9.714844 18.894531 8.210938 14.8125 7.75 11.339844 C 7.269531 7.695312 8.007812 5.109375 9.828125 4.058594 C 11.648438 3.007812 14.257812 3.660156 17.171875 5.898438 C 19.949219 8.03125 22.734375 11.378906 25.007812 15.320312 C 27.285156 19.261719 28.789062 23.347656 29.25 26.816406 C 29.730469 30.460938 28.992188 33.046875 27.171875 34.097656 C 26.605469 34.425781 25.960938 34.585938 25.253906 34.585938 Z M 11.746094 4.726562 C 11.242188 4.726562 10.789062 4.835938 10.40625 5.058594 C 9.039062 5.851562 8.488281 8.082031 8.898438 11.1875 C 9.335938 14.511719 10.789062 18.445312 12.992188 22.257812 C 15.195312 26.074219 17.871094 29.296875 20.53125 31.339844 C 23.015625 33.246094 25.226562 33.886719 26.59375 33.097656 C 27.960938 32.304688 28.511719 30.074219 28.101562 26.96875 C 27.664062 23.644531 26.210938 19.710938 24.007812 15.898438 C 21.804688 12.082031 19.128906 8.859375 16.46875 6.816406 C 14.683594 5.445312 13.039062 4.726562 11.746094 4.726562 Z M 11.746094 4.726562 "/>
<path style=" stroke:none;fill-rule:nonzero;fill:rgb(55.294118%,42.352941%,62.352941%);fill-opacity:1;" d="M 6.050781 27.15625 C 6.023438 27.15625 6 27.152344 5.972656 27.152344 L 4.828125 26.996094 C 4.507812 26.957031 4.285156 26.664062 4.328125 26.347656 C 4.371094 26.03125 4.660156 25.808594 4.980469 25.851562 L 6.125 26.003906 C 6.441406 26.046875 6.664062 26.335938 6.621094 26.652344 C 6.582031 26.945312 6.335938 27.15625 6.050781 27.15625 Z M 6.050781 27.15625 "/>
<path style=" stroke:none;fill-rule:nonzero;fill:rgb(55.294118%,42.352941%,62.352941%);fill-opacity:1;" d="M 4.738281 29.996094 C 4.425781 29.996094 4.171875 29.75 4.160156 29.4375 C 4.148438 29.117188 4.398438 28.851562 4.71875 28.839844 L 5.875 28.800781 C 6.191406 28.78125 6.460938 29.039062 6.472656 29.359375 C 6.480469 29.679688 6.230469 29.945312 5.914062 29.957031 L 4.757812 29.996094 C 4.75 29.996094 4.742188 29.996094 4.738281 29.996094 Z M 4.738281 29.996094 "/>
<path style=" stroke:none;fill-rule:nonzero;fill:rgb(55.294118%,42.352941%,62.352941%);fill-opacity:1;" d="M 5.207031 33.007812 C 4.960938 33.007812 4.730469 32.847656 4.65625 32.597656 C 4.5625 32.292969 4.734375 31.96875 5.039062 31.875 L 6.144531 31.539062 C 6.453125 31.441406 6.773438 31.617188 6.867188 31.921875 C 6.960938 32.226562 6.789062 32.550781 6.484375 32.644531 L 5.378906 32.980469 C 5.320312 33 5.265625 33.007812 5.207031 33.007812 Z M 5.207031 33.007812 "/>
<path style=" stroke:none;fill-rule:nonzero;fill:rgb(55.294118%,42.352941%,62.352941%);fill-opacity:1;" d="M 6.679688 35.757812 C 6.515625 35.757812 6.355469 35.691406 6.238281 35.554688 C 6.03125 35.3125 6.058594 34.949219 6.300781 34.742188 L 7.179688 33.988281 C 7.421875 33.78125 7.785156 33.808594 7.996094 34.050781 C 8.203125 34.292969 8.175781 34.65625 7.933594 34.863281 L 7.054688 35.617188 C 6.945312 35.710938 6.8125 35.757812 6.679688 35.757812 Z M 6.679688 35.757812 "/>
<path style=" stroke:none;fill-rule:nonzero;fill:rgb(55.294118%,42.352941%,62.352941%);fill-opacity:1;" d="M 32.242188 10.820312 C 32.230469 10.820312 32.21875 10.820312 32.207031 10.820312 L 31.054688 10.753906 C 30.734375 10.734375 30.492188 10.460938 30.511719 10.144531 C 30.527344 9.824219 30.804688 9.582031 31.121094 9.601562 L 32.277344 9.667969 C 32.59375 9.683594 32.839844 9.957031 32.820312 10.277344 C 32.800781 10.582031 32.546875 10.820312 32.242188 10.820312 Z M 32.242188 10.820312 "/>
<path style=" stroke:none;fill-rule:nonzero;fill:rgb(55.294118%,42.352941%,62.352941%);fill-opacity:1;" d="M 30.980469 7.976562 C 30.699219 7.976562 30.453125 7.769531 30.410156 7.484375 C 30.363281 7.167969 30.582031 6.875 30.898438 6.824219 L 32.039062 6.652344 C 32.359375 6.613281 32.652344 6.824219 32.699219 7.140625 C 32.746094 7.457031 32.527344 7.75 32.210938 7.796875 L 31.070312 7.96875 C 31.039062 7.972656 31.011719 7.976562 30.980469 7.976562 Z M 30.980469 7.976562 "/>
<path style=" stroke:none;fill-rule:nonzero;fill:rgb(55.294118%,42.352941%,62.352941%);fill-opacity:1;" d="M 30.1875 5.398438 C 29.980469 5.398438 29.777344 5.285156 29.675781 5.085938 C 29.527344 4.804688 29.636719 4.457031 29.917969 4.308594 L 30.941406 3.769531 C 31.222656 3.621094 31.574219 3.730469 31.722656 4.015625 C 31.871094 4.296875 31.761719 4.644531 31.476562 4.792969 L 30.453125 5.332031 C 30.367188 5.375 30.277344 5.398438 30.1875 5.398438 Z M 30.1875 5.398438 "/>
<path style=" stroke:none;fill-rule:nonzero;fill:rgb(55.294118%,42.352941%,62.352941%);fill-opacity:1;" d="M 28.480469 3.421875 C 28.367188 3.421875 28.25 3.386719 28.148438 3.316406 C 27.886719 3.128906 27.828125 2.769531 28.011719 2.507812 L 28.679688 1.566406 C 28.867188 1.304688 29.226562 1.242188 29.488281 1.429688 C 29.746094 1.613281 29.808594 1.976562 29.625 2.234375 L 28.953125 3.179688 C 28.839844 3.335938 28.664062 3.421875 28.480469 3.421875 Z M 28.480469 3.421875 "/>
</g>
</svg>
