<?xml version="1.0" encoding="UTF-8"?>
<svg xmlns="http://www.w3.org/2000/svg" xmlns:xlink="http://www.w3.org/1999/xlink" width="37pt" height="37pt" viewBox="0 0 37 37" version="1.1">
<g id="surface14271">
<path style=" stroke:none;fill-rule:nonzero;fill:rgb(95.686275%,63.529412%,38.039216%);fill-opacity:1;" d="M 19.078125 0 C 16.847656 0 15.03125 1.816406 15.03125 4.046875 L 15.03125 4.625 L 7.515625 4.625 C 5.285156 4.625 3.46875 6.441406 3.46875 8.671875 L 3.46875 32.953125 C 3.46875 35.183594 5.285156 37 7.515625 37 L 17.921875 37 C 20.152344 37 21.96875 35.183594 21.96875 32.953125 L 21.96875 32.375 L 29.484375 32.375 C 31.714844 32.375 33.53125 30.558594 33.53125 28.328125 L 33.53125 4.046875 C 33.53125 1.816406 31.714844 0 29.484375 0 Z M 19.078125 1.15625 L 29.484375 1.15625 C 31.078125 1.15625 32.375 2.453125 32.375 4.046875 L 32.375 4.625 L 21.390625 4.625 C 21.070312 4.625 20.8125 4.882812 20.8125 5.203125 C 20.8125 5.523438 21.070312 5.78125 21.390625 5.78125 L 32.375 5.78125 L 32.375 25.4375 L 21.96875 25.4375 L 21.96875 8.671875 C 21.96875 6.441406 20.152344 4.625 17.921875 4.625 L 16.1875 4.625 L 16.1875 4.046875 C 16.1875 2.453125 17.484375 1.15625 19.078125 1.15625 Z M 21.390625 2.3125 C 21.070312 2.3125 20.8125 2.570312 20.8125 2.890625 C 20.8125 3.210938 21.070312 3.46875 21.390625 3.46875 L 22.546875 3.46875 C 22.867188 3.46875 23.125 3.210938 23.125 2.890625 C 23.125 2.570312 22.867188 2.3125 22.546875 2.3125 Z M 24.859375 2.3125 C 24.539062 2.3125 24.28125 2.570312 24.28125 2.890625 C 24.28125 3.210938 24.539062 3.46875 24.859375 3.46875 L 27.171875 3.46875 C 27.492188 3.46875 27.75 3.210938 27.75 2.890625 C 27.75 2.570312 27.492188 2.3125 27.171875 2.3125 Z M 7.515625 5.78125 L 17.921875 5.78125 C 19.515625 5.78125 20.8125 7.078125 20.8125 8.671875 L 20.8125 9.25 L 4.625 9.25 L 4.625 8.671875 C 4.625 7.078125 5.921875 5.78125 7.515625 5.78125 Z M 9.828125 6.9375 C 9.507812 6.9375 9.25 7.195312 9.25 7.515625 C 9.25 7.835938 9.507812 8.09375 9.828125 8.09375 L 10.984375 8.09375 C 11.304688 8.09375 11.5625 7.835938 11.5625 7.515625 C 11.5625 7.195312 11.304688 6.9375 10.984375 6.9375 Z M 13.296875 6.9375 C 12.976562 6.9375 12.71875 7.195312 12.71875 7.515625 C 12.71875 7.835938 12.976562 8.09375 13.296875 8.09375 L 15.609375 8.09375 C 15.929688 8.09375 16.1875 7.835938 16.1875 7.515625 C 16.1875 7.195312 15.929688 6.9375 15.609375 6.9375 Z M 4.625 10.40625 L 20.8125 10.40625 L 20.8125 30.0625 L 4.625 30.0625 Z M 6.9375 26.59375 C 6.617188 26.59375 6.359375 26.851562 6.359375 27.171875 L 6.359375 28.328125 C 6.359375 28.648438 6.617188 28.90625 6.9375 28.90625 C 7.257812 28.90625 7.515625 28.648438 7.515625 28.328125 L 7.515625 27.171875 C 7.515625 26.851562 7.257812 26.59375 6.9375 26.59375 Z M 9.828125 26.59375 C 9.507812 26.59375 9.25 26.851562 9.25 27.171875 L 9.25 28.328125 C 9.25 28.648438 9.507812 28.90625 9.828125 28.90625 C 10.148438 28.90625 10.40625 28.648438 10.40625 28.328125 L 10.40625 27.171875 C 10.40625 26.851562 10.148438 26.59375 9.828125 26.59375 Z M 12.71875 26.59375 C 12.398438 26.59375 12.140625 26.851562 12.140625 27.171875 L 12.140625 28.328125 C 12.140625 28.648438 12.398438 28.90625 12.71875 28.90625 C 13.039062 28.90625 13.296875 28.648438 13.296875 28.328125 L 13.296875 27.171875 C 13.296875 26.851562 13.039062 26.59375 12.71875 26.59375 Z M 15.609375 26.59375 C 15.289062 26.59375 15.03125 26.851562 15.03125 27.171875 L 15.03125 28.328125 C 15.03125 28.648438 15.289062 28.90625 15.609375 28.90625 C 15.929688 28.90625 16.1875 28.648438 16.1875 28.328125 L 16.1875 27.171875 C 16.1875 26.851562 15.929688 26.59375 15.609375 26.59375 Z M 18.5 26.59375 C 18.179688 26.59375 17.921875 26.851562 17.921875 27.171875 L 17.921875 28.328125 C 17.921875 28.648438 18.179688 28.90625 18.5 28.90625 C 18.820312 28.90625 19.078125 28.648438 19.078125 28.328125 L 19.078125 27.171875 C 19.078125 26.851562 18.820312 26.59375 18.5 26.59375 Z M 21.96875 26.59375 L 32.375 26.59375 L 32.375 28.328125 C 32.375 29.921875 31.078125 31.21875 29.484375 31.21875 L 21.96875 31.21875 Z M 24.28125 27.75 C 23.644531 27.75 23.125 28.269531 23.125 28.90625 C 23.125 29.542969 23.644531 30.0625 24.28125 30.0625 C 24.917969 30.0625 25.4375 29.542969 25.4375 28.90625 C 25.4375 28.269531 24.917969 27.75 24.28125 27.75 Z M 4.625 31.21875 L 20.8125 31.21875 L 20.8125 32.953125 C 20.8125 34.546875 19.515625 35.84375 17.921875 35.84375 L 7.515625 35.84375 C 5.921875 35.84375 4.625 34.546875 4.625 32.953125 Z M 12.71875 32.375 C 12.082031 32.375 11.5625 32.894531 11.5625 33.53125 C 11.5625 34.167969 12.082031 34.6875 12.71875 34.6875 C 13.355469 34.6875 13.875 34.167969 13.875 33.53125 C 13.875 32.894531 13.355469 32.375 12.71875 32.375 Z M 12.71875 32.375 "/>
</g>
</svg>
